<svg enable-background="new 0 0 66 66" height="512" viewBox="0 0 66 66" width="512" xmlns="http://www.w3.org/2000/svg"><g id="icons" style="fill:none;stroke:#000;stroke-width:2;stroke-linecap:round;stroke-linejoin:round;stroke-miterlimit:10"><g><path d="m53.1 64.3h-40.3v-53.6c0-1.5 1.2-2.7 2.7-2.7h34.8c1.5 0 2.7 1.2 2.7 2.7v53.6z"/><path d="m45.2 7.9h-24.5v-3c0-1.3 1.1-2.4 2.4-2.4h19.8c1.3 0 2.4 1.1 2.4 2.4v3z"/><path d="m24.4 49h17.2v15.3h-17.2z"/><path d="m41.8 39.7h-17.4c-1.4 0-2.6-1.2-2.6-2.6v-17.4c0-1.4 1.2-2.6 2.6-2.6h17.4c1.4 0 2.6 1.2 2.6 2.6v17.4c0 1.5-1.1 2.6-2.6 2.6z"/><path d="m27 22.3h12.3v12.3h-12.3z" transform="matrix(0 1 -1 0 61.531 -4.701)"/><g><circle cx="61.1" cy="16.8" r="2.8"/><path d="m58.3 16.8h-8.2l-5.7 8.6"/></g><g><circle cx="61.1" cy="29" r="2.8"/><path d="m58.3 29h-13.9"/></g><g><circle cx="61.1" cy="42" r="2.8"/><path d="m58.3 42h-8.2l-5.7-10.1"/></g><g><circle cx="4.8" cy="16.8" r="2.8"/><path d="m7.6 16.8h8.2l5.7 8.6"/></g><g><circle cx="4.8" cy="29" r="2.8"/><path d="m7.6 29h13.9"/></g><g><circle cx="4.8" cy="42" r="2.8"/><path d="m7.6 42h8.2l5.7-10.1"/></g><path d="m33.1 13.5v3.6"/><path d="m40.4 13.5v3.6"/><path d="m25.6 13.5v3.6"/><path d="m33.1 39.7v3.7"/><path d="m40.4 39.7v3.7"/><path d="m25.6 39.7v3.7"/></g><path d="m33 49v15.4"/></g></svg>