<?xml version="1.0"?>
<svg xmlns="http://www.w3.org/2000/svg" id="line" viewBox="0 0 64 64"><path d="M53.0686,13.65043l1.54288.18969a.99753.99753,0,0,0,.24352-1.97987l-3.81937-.4706a.98654.98654,0,0,0-1.11172.86814l-.47061,3.81942a.99757.99757,0,0,0,1.97987.24353l.16314-1.323c14.47034,16.574,2.3911,42.96406-19.63863,42.87965A25.86634,25.86634,0,0,1,17.69944,53.607a.99745.99745,0,0,0-1.09711,1.66613C43.79127,72.66058,73.82011,38.28543,53.0686,13.65043Z"/><path d="M13.4172,46.6073a.98428.98428,0,0,0-1.07958.90809l-.10827,1.25538C-6.8103,25.83923,21.08151-5.82719,46.21671,10.26659A.9977.9977,0,0,0,47.31358,8.6,27.84881,27.84881,0,0,0,31.958,4.00022c-23.55671-.09158-36.62059,27.9831-21.391,45.897l-1.41445-.19834a.99774.99774,0,0,0-.27665,1.976l4.00254.56123a1.00366,1.00366,0,0,0,1.13219-.90225l.31471-3.647A.99732.99732,0,0,0,13.4172,46.6073Z"/><path d="M31.958,10.98432a20.87655,20.87655,0,0,0-11.51674,3.45015.99745.99745,0,1,0,1.09711,1.66613C39.51986,4.54817,60.01226,26.87221,46.77367,43.74827a1.01593,1.01593,0,1,0-2.01287-.12246l.2339,2.70088a1.00361,1.00361,0,0,0,1.13219.90224l2.96493-.41507a.99782.99782,0,0,0-.27678-1.976l-.40983.05731C59.25057,31.44676,49.26,10.83878,31.958,10.98432Z"/><path d="M31.958,52.8889a20.87651,20.87651,0,0,0,11.51675-3.45016.99745.99745,0,0,0-1.09711-1.66612C24.31955,59.3625,3.82582,36.85893,17.22767,20.00985l.04793.39053a.99757.99757,0,0,0,1.97986-.24365l-.34881-2.82846a.98841.98841,0,0,0-1.11173-.86814l-2.82949.34882a.99757.99757,0,0,0,.24364,1.97986l.48638-.0598C4.57649,32.13434,14.50962,53.033,31.958,52.8889Z"/><path d="M20.20935,36.37085a.99715.99715,0,0,0,.99772.99772h3.96a12.00323,12.00323,0,0,0,15.99264,5.2642.998.998,0,0,0-.89256-1.78481,9.9761,9.9761,0,0,1-12.79539-3.47951l6.53334.00012a.99773.99773,0,1,0,0-1.99545H26.46689a9.93472,9.93472,0,0,1,.00006-6.873h7.53813a.99792.99792,0,0,0-.00006-1.99546H27.47174a9.97636,9.97636,0,0,1,12.79545-3.47932.99787.99787,0,0,0,.8925-1.78506,11.93818,11.93818,0,0,0-15.99264,5.26438h-3.96a.99792.99792,0,0,0,.00006,1.99546h3.16175a11.8204,11.8204,0,0,0,.00006,6.873H21.20707A.99715.99715,0,0,0,20.20935,36.37085Z"/></svg>
