<svg id="Layer_1" enable-background="new 0 0 500 500" viewBox="0 0 500 500" xmlns="http://www.w3.org/2000/svg"><path clip-rule="evenodd" d="m456.949 145.563c0-38.807-31.565-70.367-70.334-70.367-38.824 0-70.39 31.56-70.39 70.367 0 19.8 8.271 37.699 21.438 50.5v-8.384c0-19.378 11.366-36.163 27.74-44.085-5.908-5.615-9.622-13.538-9.622-22.31 0-16.992 13.842-30.817 30.834-30.817 16.993 0 30.834 13.825 30.834 30.817 0 8.772-3.714 16.694-9.622 22.31 16.374 7.922 27.683 24.707 27.683 44.085v8.384c13.225-12.801 21.439-30.699 21.439-50.5zm-52.891-24.279c0 9.633-7.821 17.465-17.443 17.465s-17.499-7.832-17.499-17.465 7.877-17.465 17.499-17.465c9.623 0 17.443 7.832 17.443 17.465zm-17.442 94.641c-12.998 0-25.151-3.539-35.56-9.695v-18.551c0-19.62 15.923-35.572 35.56-35.572 19.581 0 35.561 15.951 35.561 35.572v18.551c-10.466 6.156-22.62 9.695-35.561 9.695zm-89.858 8.378c0-25.781-20.988-46.747-46.758-46.747s-46.758 20.965-46.758 46.747c0 25.776 20.988 46.741 46.758 46.741s46.758-20.965 46.758-46.741zm-46.758 87.248c-38.824 0-70.39 31.566-70.39 70.362 0 19.8 8.271 37.71 21.438 50.505v-8.384c0-19.373 11.366-36.163 27.74-44.079-5.908-5.615-9.622-13.538-9.622-22.315 0-16.998 13.842-30.823 30.834-30.823 16.993 0 30.834 13.825 30.834 30.823 0 8.778-3.714 16.7-9.621 22.315 16.374 7.917 27.683 24.707 27.683 44.079v8.384c13.223-12.801 21.438-30.705 21.438-50.505 0-38.797-31.566-70.362-70.334-70.362zm0 63.553c-9.621 0-17.499-7.838-17.499-17.465 0-9.639 7.878-17.471 17.499-17.471 9.622 0 17.443 7.832 17.443 17.471 0 9.627-7.821 17.465-17.443 17.465zm0 77.181c-12.997 0-25.151-3.545-35.561-9.695v-18.557c0-19.615 15.923-35.577 35.561-35.577 19.581 0 35.561 15.963 35.561 35.577v18.557c-10.41 6.15-22.62 9.695-35.561 9.695zm-66.282-306.992c0-38.807-31.566-70.373-70.334-70.373-38.824 0-70.39 31.565-70.39 70.373 0 19.8 8.271 37.704 21.438 50.5v-8.384c0-19.378 11.366-36.157 27.739-44.079-5.908-5.621-9.621-13.543-9.621-22.31 0-16.998 13.842-30.823 30.834-30.823s30.834 13.825 30.834 30.823c0 8.767-3.714 16.689-9.622 22.31 16.374 7.922 27.683 24.701 27.683 44.079v8.384c13.224-12.796 21.439-30.7 21.439-50.5zm-52.891-24.273c0 9.622-7.821 17.465-17.443 17.465s-17.499-7.844-17.499-17.465c0-9.633 7.877-17.465 17.499-17.465s17.443 7.832 17.443 17.465zm-17.443 94.64c-12.998 0-25.151-3.545-35.561-9.695v-18.557c0-19.62 15.924-35.572 35.561-35.572s35.561 15.952 35.561 35.572v18.557c-10.466 6.151-22.62 9.695-35.561 9.695zm356.957-70.097c0 46.156-37.586 83.714-83.725 83.714-28.583 0-53.847-14.398-68.983-36.32l-12.604 7.264c16.228 36.71-8.029 79.314-48.333 83.798v14.444c43.044 3.415 77.029 39.533 77.029 83.449 0 46.173-37.586 83.731-83.725 83.731-46.195 0-83.725-37.558-83.725-83.731 0-43.916 33.985-80.04 77.029-83.449v-14.444c-40.407-4.495-64.642-47.363-48.277-83.922l-12.716-7.343c-15.136 21.894-40.4 36.259-68.927 36.259-46.195 0-83.725-37.558-83.725-83.72 0-46.167 37.53-83.725 83.725-83.725 46.139 0 83.725 37.558 83.725 83.725 0 12.84-2.926 25.016-8.103 35.904l12.716 7.365c24.175-32.544 72.671-32.396 96.61.107l12.604-7.275c-5.176-10.871-8.046-23.019-8.046-35.831 0-46.167 37.53-83.719 83.725-83.719 46.14 0 83.726 37.552 83.726 83.719zm-207.006 74.689c19.012 8.539 15.371 30.26-6.639 34.497v1.435c0 3.686-3.039 6.673-6.696 6.673-3.714 0-6.696-2.988-6.696-6.673v-1.294c-5.233-.692-10.297-2.11-15.08-4.287-3.32-1.525-4.839-5.486-3.32-8.84 1.519-3.359 5.514-4.844 8.834-3.32 6.805 3.105 17.069 5.113 24.251 2.054 3.488-1.502 4.107-3.072 4.276-4.012-.169-.867-.788-2.408-4.333-4-5.744-2.479-13.86-.619-21.044-4.175-9.847-4.546-12.098-11.208-12.266-15.991-.147-8.34 6.737-16.1 18.681-18.428v-1.468c0-3.691 2.982-6.673 6.696-6.673 3.657 0 6.696 2.982 6.696 6.673v1.3c5.458.703 10.409 2.127 15.079 4.327 3.32 1.587 4.727 5.565 3.151 8.896-1.575 3.331-5.57 4.743-8.89 3.168-4.614-2.189-9.847-3.348-15.98-3.533-2.926.034-5.514.546-7.708 1.497-.056.017-.113.023-.113.045-6.279 2.599-4.991 5.766.113 8.018 5.662 2.495 11.268.231 20.988 4.111zm-99.029-150.919c1.069 0 2.194-.259 3.207-.793 3.77-2.031 7.652-3.939 11.535-5.683 3.376-1.502 4.839-5.458 3.376-8.823-1.519-3.359-5.458-4.878-8.834-3.359-4.22 1.857-8.384 3.922-12.435 6.105-6.092 3.269-3.69 12.553 3.151 12.553zm76.522-21.415 13.392-.225c3.601 0 6.583-2.869 6.696-6.527.056-3.714-2.87-6.752-6.583-6.809l-13.842.225c-3.657.169-6.471 3.32-6.302 7.033.169 3.546 3.151 6.303 6.639 6.303zm38.825 2.138c4.22.731 8.44 1.575 12.604 2.644 3.538.807 7.209-1.274 8.102-4.895.844-3.601-1.351-7.202-4.895-8.103-4.501-1.069-9.059-2.025-13.56-2.813-3.657-.563-7.09 1.857-7.709 5.514-.619 3.602 1.857 7.09 5.458 7.653zm37.08 10.561c3.938 1.609 7.877 3.398 11.703 5.295 3.279 1.633 7.29.318 8.946-2.999 1.632-3.303.281-7.32-2.982-8.958-4.164-2.042-8.384-3.955-12.66-5.7-3.376-1.407-7.315.225-8.665 3.657-1.407 3.405.225 7.304 3.658 8.705zm-115.348-6.234c.619 0 1.182-.079 1.801-.248 4.108-1.153 8.328-2.166 12.491-3.01 3.657-.731 5.964-4.22 5.233-7.877-.731-3.601-4.22-5.908-7.821-5.177-4.501.9-9.059 1.969-13.504 3.207-7.452 2.102-5.836 13.105 1.8 13.105zm156.985 309.535c-3.376 2.622-6.865 5.137-10.41 7.5-5.553 3.679-2.895 12.238 3.657 12.238 1.294 0 2.588-.354 3.714-1.108 3.826-2.543 7.596-5.255 11.253-8.069 2.926-2.262 3.432-6.454 1.182-9.374-2.25-2.909-6.47-3.443-9.396-1.187zm57.73-61.955c-3.263-1.677-7.315-.366-8.946 2.926l-6.246 11.253c-2.716 4.512.585 10.122 5.683 10.122 2.251 0 4.445-1.148 5.739-3.224l6.696-12.097c1.688-3.286.393-7.309-2.926-8.98zm-20.707 34.255c-2.813-2.352-7.033-1.952-9.34.9-2.757 3.291-5.627 6.521-8.552 9.61-4.139 4.312-.989 11.293 4.783 11.293 1.801 0 3.545-.686 4.839-2.059 3.207-3.325 6.302-6.808 9.228-10.342 2.306-2.853 1.912-7.061-.958-9.402zm37.587-111.96c-3.601-.096-6.752 2.796-6.865 6.482-.113 4.265-.394 8.58-.844 12.829-.387 3.91 2.735 7.365 6.639 7.365 3.376 0 6.302-2.56 6.639-5.987.506-4.574.788-9.222.957-13.813.113-3.686-2.813-6.758-6.526-6.876zm-4.108 39.798c-3.545-.917-7.202 1.232-8.103 4.805-1.069 4.13-2.307 8.277-3.657 12.322-1.473 4.388 1.806 8.811 6.302 8.811 2.813 0 5.402-1.755 6.358-4.541 1.463-4.361 2.757-8.823 3.939-13.273.901-3.567-1.238-7.213-4.839-8.124zm-359.714-8.176c3.657-.495 6.246-3.86 5.739-7.512-.619-4.237-1.013-8.541-1.294-12.801-.225-3.68-3.432-6.482-7.09-6.251-3.657.231-6.471 3.398-6.246 7.078.281 4.58.732 9.222 1.35 13.78.534 3.711 4.068 6.263 7.541 5.706zm15.136 29.827c-1.519-4.006-2.87-8.114-4.051-12.21-1.069-3.539-4.783-5.57-8.327-4.541-3.545 1.035-5.57 4.738-4.501 8.282 1.294 4.406 2.757 8.828 4.333 13.138 1.283 3.452 5.156 5.193 8.609 3.916 3.431-1.287 5.231-5.136 3.937-8.585zm72.022 87.917c-3.601-2.239-7.202-4.648-10.691-7.146-2.926-2.166-7.146-1.497-9.284 1.485-2.194 2.982-1.519 7.157 1.463 9.318 3.714 2.701 7.596 5.289 11.535 7.714 3.103 1.919 7.247.989 9.171-2.178 1.913-3.139.956-7.252-2.194-9.193zm-56.436-56.261c-1.688-2.718-3.32-5.514-4.895-8.305-1.744-3.224-5.796-4.4-9.059-2.622-3.207 1.784-4.389 5.84-2.588 9.07l7.09 11.872c1.98 3.059 6.137 3.969 9.228 1.958 3.095-2.014 3.995-6.144 1.969-9.245-.563-.894-1.182-1.811-1.745-2.728zm26.108 32.545c-3.039-2.988-6.021-6.128-8.834-9.329-2.42-2.768-6.64-3.033-9.397-.596-2.757 2.442-3.038 6.662-.619 9.425 3.039 3.449 6.246 6.825 9.566 10.044 1.294 1.266 2.982 1.908 4.67 1.908 5.793-.002 8.961-7.206 4.614-11.452z" fill-rule="evenodd"/></svg>