<svg clip-rule="evenodd" fill-rule="evenodd" stroke-linejoin="round" stroke-miterlimit="2" viewBox="0 0 510 510" xmlns="http://www.w3.org/2000/svg"><path d="m495 303.689h-480c-2.27 0-4.433-.964-5.95-2.652s-2.246-3.941-2.005-6.198c2.603-24.352 18.336-44.779 39.987-54.054-7.041-6.842-11.423-16.405-11.423-26.956 0-20.709 16.88-37.609 37.608-37.609 11.349 0 21.549 5.075 28.451 13.071-.392-2.495-.595-5.052-.595-7.655 0-27.12 22.106-49.253 49.252-49.253 27.121 0 49.231 22.131 49.231 49.253 0 7.866-1.86 15.312-5.163 21.921 8.342-5.013 17.333-9.053 26.818-11.964-17.871-11.713-29.713-31.926-29.713-54.811 0-36.054 29.391-65.476 65.446-65.476 36.087 0 65.475 29.423 65.475 65.476 0 5.079-.583 10.026-1.686 14.777 9.017-11.651 23.127-19.176 38.942-19.176 27.146 0 49.252 22.133 49.252 49.253 0 2.603-.203 5.16-.595 7.655 6.902-7.996 17.102-13.071 28.451-13.071 20.728 0 37.608 16.9 37.608 37.609 0 10.551-4.382 20.114-11.423 26.956 21.651 9.275 37.384 29.702 39.987 54.054.241 2.257-.488 4.51-2.005 6.198s-3.68 2.652-5.95 2.652zm-421.783-52.252c-22.96 0-42.341 15.296-48.504 36.252h37.602c2.516-13.281 7.962-25.525 15.642-36.033-1.561-.145-3.141-.219-4.74-.219zm37.474-40.613c.079.991.119 1.993.119 3.005 0 3.846-.582 7.561-1.663 11.061 3.42-1.774 6.97-3.333 10.631-4.66-3.427-2.72-6.486-5.885-9.087-9.406zm-37.474 24.613c11.898 0 21.593-9.711 21.593-21.608s-9.695-21.609-21.593-21.609c-11.909 0-21.608 9.711-21.608 21.609s9.699 21.608 21.608 21.608zm77.108-20.549c18.309 0 33.231-14.944 33.231-33.252 0-18.309-14.922-33.253-33.231-33.253-18.327 0-33.252 14.943-33.252 33.253s14.925 33.252 33.252 33.252zm106.619-12.63c-51.425 0-94.272 36.753-103.725 85.431h207.454c-9.428-48.679-52.278-85.431-103.729-85.431zm-119.984 85.431c3.509-20.915 12.35-40.022 25.077-55.874-3.814-.61-7.726-.927-11.712-.927-20.308 0-38.691 8.223-52.002 21.519-9.549 9.538-16.49 21.685-19.658 35.282zm174.16-114.203c-4.883 7.18-11.154 13.347-18.423 18.108 7.515 2.307 14.719 5.321 21.536 8.966-2.44-5.832-3.789-12.226-3.789-18.924 0-2.775.232-5.498.676-8.15zm-54.176 12.772c27.269 0 49.475-22.233 49.475-49.476s-22.206-49.476-49.475-49.476c-27.242 0-49.446 22.234-49.446 49.476s22.204 49.476 49.446 49.476zm142.365 24.566c-2.601 3.521-5.66 6.686-9.087 9.406 3.661 1.327 7.211 2.886 10.631 4.66-1.081-3.5-1.663-7.215-1.663-11.061 0-1.012.04-2.014.119-3.005zm-39.634 4.064c18.327 0 33.252-14.942 33.252-33.252s-14.925-33.253-33.252-33.253c-18.309 0-33.231 14.944-33.231 33.253 0 18.308 14.922 33.252 33.231 33.252zm77.108 20.549c11.909 0 21.608-9.71 21.608-21.608s-9.699-21.609-21.608-21.609c-11.898 0-21.593 9.712-21.593 21.609s9.695 21.608 21.593 21.608zm10.902 52.252h37.602c-6.163-20.956-25.544-36.252-48.504-36.252-1.599 0-3.179.074-4.74.219 7.68 10.508 13.126 22.752 15.642 36.033zm-69.12 0h52.77c-3.168-13.597-10.109-25.744-19.658-35.282-13.311-13.296-31.694-21.519-52.002-21.519-2.767 0-5.499.153-8.187.45 12.931 15.945 21.908 35.226 25.443 56.351zm-292.514 30.362h337.898c4.418 0 8 3.582 8 8v22.879c0 3.31-2.038 6.278-5.126 7.466 0 0-24.123 9.285-24.123 9.284-3.449 12.873-8.593 25.222-15.247 36.772l10.481 23.662c1.339 3.023.681 6.559-1.657 8.897l-32.317 32.316c-2.338 2.338-5.874 2.997-8.897 1.658 0 0-23.646-10.474-23.646-10.474-11.526 6.681-23.907 11.798-36.788 15.241l-9.283 24.121c-1.189 3.089-4.157 5.127-7.467 5.127h-45.712c-3.31 0-6.278-2.038-7.467-5.127 0 0-9.282-24.119-9.282-24.119-12.91-3.449-25.266-8.595-36.819-15.25l-23.662 10.481c-3.023 1.339-6.559.68-8.897-1.658l-32.317-32.316c-2.34-2.341-2.998-5.882-1.653-8.907 0 0 10.512-23.642 10.513-23.642-6.679-11.523-11.798-23.9-15.272-36.777l-24.134-9.289c-3.088-1.188-5.126-4.156-5.126-7.466v-22.879c0-4.418 3.582-8 8-8zm81.575 16h-73.575v9.386l22.863 8.799c2.455.945 4.288 3.037 4.904 5.594 3.392 14.09 8.956 27.572 16.566 39.879 1.391 2.25 1.58 5.041.506 7.458 0 0-9.967 22.416-9.967 22.416l24.551 24.551 22.42-9.931c2.404-1.065 5.178-.881 7.419.493 12.352 7.568 25.79 13.181 39.926 16.53 2.569.609 4.673 2.447 5.621 4.911l8.8 22.863h34.726l8.8-22.863c.947-2.463 3.049-4.299 5.616-4.91 14.082-3.346 27.556-8.908 39.856-16.514 2.247-1.389 5.033-1.58 7.448-.51l22.42 9.931 24.557-24.557-9.931-22.42c-1.065-2.404-.881-5.178.493-7.42 7.568-12.352 13.182-25.791 16.532-39.884.61-2.567 2.447-4.669 4.909-5.617 0 0 22.863-8.799 22.863-8.799v-9.386h-73.53c-4.042 44.725-41.642 79.779-87.419 79.779-45.778 0-83.336-35.053-87.374-79.779zm158.712 0h-142.631c3.975 35.873 34.361 63.779 71.293 63.779 36.934 0 67.359-27.905 71.338-63.779zm-77.394-319.051c0-4.415 3.584-8 8-8 4.415 0 8 3.585 8 8v29.415c0 4.416-3.585 8-8 8-4.416 0-8-3.584-8-8zm-61.62 20.798c-2.208-3.824-.896-8.72 2.928-10.928s8.72-.896 10.928 2.928l14.708 25.475c2.207 3.823.895 8.72-2.928 10.928-3.824 2.207-8.721.895-10.929-2.928zm-42.966 48.822c-3.823-2.208-5.135-7.105-2.928-10.928 2.208-3.824 7.105-5.136 10.928-2.929l25.475 14.708c3.824 2.208 5.136 7.104 2.928 10.928s-7.104 5.136-10.928 2.928zm168.349-56.822c2.208-3.824 7.104-5.136 10.928-2.928s5.136 7.104 2.928 10.928l-14.707 25.475c-2.208 3.823-7.105 5.135-10.929 2.928-3.823-2.208-5.135-7.105-2.928-10.928zm48.822 42.965c3.823-2.207 8.72-.895 10.928 2.929 2.207 3.823.895 8.72-2.928 10.928l-25.475 14.707c-3.824 2.208-8.72.896-10.928-2.928s-.896-8.72 2.928-10.928z"/></svg>