<svg enable-background="new 0 0 512 512" viewBox="0 0 512 512" xmlns="http://www.w3.org/2000/svg"><g id="_x30_4_x2C__funnel_x2C__filter_x2C__web_filter_x2C__ai_x2C__technology_x2C__ui"><g><circle cx="338.497" cy="248.5" r="7.5"/><circle cx="155.297" cy="342.1" r="7.5"/><path d="m435.871 249.838c.229-1.272.08 2.157.126-61.338 0-4.142-3.357-7.5-7.5-7.5h-90v-30h37.5c4.143 0 7.5-3.358 7.5-7.5v-52.5h7.5c4.143 0 7.5-3.358 7.5-7.5v-30c0-4.142-3.357-7.5-7.5-7.5h-30c-4.143 0-7.5 3.358-7.5 7.5v30c0 4.142 3.357 7.5 7.5 7.5h7.5v45h-37.5c-4.143 0-7.5 3.358-7.5 7.5v37.5h-60v-135h7.5c4.143 0 7.5-3.358 7.5-7.5v-30c0-4.142-3.357-7.5-7.5-7.5h-30c-4.143 0-7.5 3.358-7.5 7.5v30c0 4.142 3.357 7.5 7.5 7.5h7.5v135h-60v-37.5c0-4.142-3.357-7.5-7.5-7.5h-37.5v-45h7.5c4.143 0 7.5-3.358 7.5-7.5v-30c0-4.142-3.357-7.5-7.5-7.5h-30c-4.143 0-7.5 3.358-7.5 7.5v30c0 4.142 3.357 7.5 7.5 7.5h7.5v52.5c0 4.142 3.357 7.5 7.5 7.5h37.5v30h-90c-4.143 0-7.5 3.358-7.5 7.5.005 16.922-.017 60.026.031 60.613.118 1.459.67 2.838 1.503 3.933l53.32 69.98c2.495 3.273 7.195 3.945 10.512 1.42 3.294-2.511 3.93-7.217 1.42-10.512l-44.142-57.934h209.856c4.143 0 7.5-3.357 7.5-7.5 0-4.142-3.357-7.5-7.5-7.5h-217.5v-45h330v45h-52.5c-4.143 0-7.5 3.358-7.5 7.5 0 4.143 3.357 7.5 7.5 7.5h44.857l-108.571 142.5h-97.57l-28.079-36.854c-2.51-3.295-7.217-3.932-10.511-1.421-3.295 2.511-3.931 7.216-1.421 10.511l28.796 37.796v94.968c0 4.143 3.357 7.5 7.5 7.5h105c4.143 0 7.5-3.357 7.5-7.5v-94.969c124.846-163.874 118.504-155.511 118.818-156.001.532-.834.886-1.751 1.055-2.692zm-67.374-188.838h15v15h-15zm-120-45h15v15h-15zm-120 45h15v15h-15zm172.5 435h-90v-82.5h90z"/><path d="m210.997 128.5c4.143 0 7.5-3.358 7.5-7.5v-82.5c0-4.142-3.357-7.5-7.5-7.5s-7.5 3.358-7.5 7.5v82.5c0 4.142 3.358 7.5 7.5 7.5z"/><path d="m293.497 121c4.143 0 7.5-3.358 7.5-7.5v-22.5c0-4.142-3.357-7.5-7.5-7.5s-7.5 3.358-7.5 7.5v22.5c0 4.142 3.358 7.5 7.5 7.5z"/><path d="m180.997 121c4.143 0 7.5-3.358 7.5-7.5v-22.5c0-4.142-3.357-7.5-7.5-7.5s-7.5 3.358-7.5 7.5v22.5c0 4.142 3.358 7.5 7.5 7.5z"/><path d="m323.497 83.5c4.143 0 7.5-3.358 7.5-7.5v-45c0-4.142-3.357-7.5-7.5-7.5s-7.5 3.358-7.5 7.5v45c0 4.142 3.358 7.5 7.5 7.5z"/></g></g><g id="Layer_1"/></svg>