<svg id="Layer_1" enable-background="new 0 0 512 512" height="512" viewBox="0 0 512 512" width="512" xmlns="http://www.w3.org/2000/svg"><g id="_x31_4_Crowdfunding"><g><g><path d="m479.633 296.183c-13.529-4.402-27.873 1.192-35.32 12.592l-45.205-14.688c3.25-12.191 5.149-24.928 5.149-38.13 0-13.172-1.894-25.882-5.135-38.048l45.152-14.67c7.636 11.718 22.082 16.9 35.358 12.578 16.239-5.276 25.111-22.674 19.836-38.926-5.279-16.26-22.72-25.098-38.915-19.832-12.87 4.181-21.962 16.324-21.195 30.953l-45.166 14.676c-9.395-24.275-24.896-45.513-44.763-61.681l27.86-38.346c13.486 5.189 28.002.422 36.014-10.621 10.02-13.787 7.012-33.085-6.828-43.149-13.884-10.096-33.183-6.899-43.149 6.836-7.908 10.876-8.218 26.051 1.05 37.491l-27.914 38.421c-21.09-13.69-45.85-22.067-72.465-23.489v-47.556c13.141-3.55 22.89-15.456 22.89-29.704 0-17.031-13.859-30.891-30.891-30.891s-30.891 13.859-30.891 30.891c0 14.247 9.75 26.153 22.89 29.704v47.559c-26.61 1.437-51.368 9.819-72.455 23.506l-27.926-38.438c9.263-11.429 8.97-26.608 1.053-37.495-9.978-13.753-29.271-16.908-43.149-6.836-13.841 10.064-16.848 29.361-6.828 43.149 7.911 10.903 22.355 15.873 36.01 10.622l27.873 38.365c-19.866 16.167-35.369 37.397-44.765 61.663l-45.168-14.679c.765-14.594-8.291-26.76-21.195-30.952-16.205-5.26-33.633 3.569-38.915 19.832-5.271 16.243 3.589 33.648 19.836 38.926 13.502 4.394 27.858-1.072 35.358-12.58l45.155 14.672c-3.242 12.166-5.138 24.877-5.138 38.048 0 13.201 1.901 25.939 5.152 38.13l-45.205 14.688c-7.44-11.399-21.781-16.993-35.323-12.592-16.239 5.276-25.11 22.674-19.836 38.926 5.266 16.216 22.676 25.117 38.915 19.832 12.902-4.192 21.961-16.355 21.195-30.952l45.191-14.684c9.401 24.263 24.898 45.49 44.756 61.656l-27.912 38.419c-13.797-5.287-28.107-.269-35.98 10.581-10.02 13.787-7.012 33.085 6.828 43.149 13.861 10.067 33.155 6.938 43.149-6.836 7.909-10.877 8.217-26.057-1.053-37.495l27.934-38.448c21.085 13.694 45.84 22.077 72.448 23.515v47.56c-13.141 3.55-22.89 15.456-22.89 29.704 0 17.031 13.859 30.891 30.891 30.891s30.891-13.859 30.891-30.891c0-14.247-9.75-26.153-22.89-29.704v-47.555c26.611-1.424 51.369-9.804 72.457-23.499l27.921 38.43c-9.262 11.432-8.966 26.606-1.05 37.491 10.001 13.784 29.308 16.886 43.149 6.836 13.84-10.064 16.848-29.361 6.828-43.149-7.929-10.928-22.3-15.84-35.987-10.584l-27.896-38.395c19.857-16.169 35.355-37.402 44.754-61.675l45.184 14.681c-.769 14.661 8.363 26.783 21.187 30.953 16.236 5.271 33.649-3.592 38.922-19.832 5.269-16.24-3.59-33.644-19.838-38.924zm-14.14-123.906h.007c7.853-2.563 16.229 1.785 18.75 9.558 2.522 7.774-1.673 16.205-9.554 18.762-7.79 2.555-16.234-1.75-18.765-9.558-2.56-7.887 1.798-16.244 9.562-18.762zm-89.227-107.145c4.854-6.665 14.151-8.13 20.804-3.297 6.634 4.815 8.144 14.125 3.297 20.797-4.939 6.784-14.285 8.033-20.804 3.293-6.622-4.805-8.154-14.108-3.297-20.793zm-264.634 17.501c-4.837-6.657-3.35-15.972 3.297-20.797 6.645-4.827 15.946-3.376 20.804 3.297 6.157 8.473 2.019 17.469-4.903 21.502-5.928 3.456-13.902 3.271-19.198-4.002zm-74.328 117.964c-7.742-2.511-12.122-10.848-9.554-18.762 2.519-7.765 10.889-12.125 18.75-9.558h.008c9.295 3.016 11.603 11.602 9.283 18.681-2.322 7.079-9.27 12.652-18.487 9.639zm9.196 139.126c-7.721 2.523-16.189-1.662-18.75-9.558-2.522-7.774 1.673-16.205 9.554-18.762 8.554-2.786 15.074 1.843 17.785 8.194 3.13 7.333 1.179 16.964-8.589 20.126zm89.234 107.145c-4.758 6.534-14.004 8.233-20.804 3.297-6.634-4.815-8.144-14.125-3.297-20.797 5.284-7.256 14.144-7.528 20.253-3.503 7.331 4.83 8.685 14.346 3.848 21.003zm264.634-17.501c4.837 6.657 3.35 15.972-3.297 20.797-6.756 4.914-16.022 3.271-20.804-3.297-4.847-6.671-3.337-15.978 3.297-20.793 6.629-4.816 15.934-3.394 20.804 3.293zm-159.259-398.476c0-8.211 6.68-14.891 14.891-14.891s14.891 6.68 14.891 14.891c0 9.66-7.444 14.561-14.889 14.596-7.446.035-14.893-4.795-14.893-14.596zm29.782 450.218c0 8.211-6.68 14.891-14.891 14.891s-14.891-6.68-14.891-14.891c0-8.207 6.68-14.887 14.891-14.887 8.211.001 14.891 6.681 14.891 14.887zm-14.844-92.855c-72.953 0-132.305-59.348-132.305-132.297 0-72.902 59.352-132.212 132.305-132.212 72.898 0 132.212 59.308 132.212 132.212 0 72.95-59.314 132.297-132.212 132.297zm228.204-58.09c-2.537 7.821-10.935 12.097-18.758 9.558-7.764-2.519-12.121-10.875-9.563-18.762 2.552-7.864 11.014-12.083 18.765-9.558 7.742 2.512 12.122 10.848 9.556 18.762z"/><path d="m299.5 299.227c-8.273 9.598-18.852 14.882-29.797 14.882-16.618 0-31.121-11.811-38.863-29.27h34.526c4.421 0 8-3.582 8-8s-3.578-8-8-8h-39.351c-1.475-8.427-1.565-16.743-.001-25.683h39.352c4.421 0 8-3.582 8-8s-3.578-8-8-8h-34.526c7.742-17.459 22.245-29.27 38.864-29.27 10.946 0 21.523 5.286 29.804 14.879 2.882 3.347 7.922 3.719 11.281.836 3.344-2.887 3.719-7.937.828-11.281-11.359-13.176-26.242-20.433-41.915-20.433-25.148 0-46.78 18.691-56.032 45.269h-19.195c-4.421 0-8 3.582-8 8s3.578 8 8 8h15.375c-1.3 9.01-1.302 16.655 0 25.683h-15.376c-4.421 0-8 3.582-8 8s3.578 8 8 8h19.196c9.252 26.579 30.884 45.269 56.031 45.269 15.672 0 30.555-7.258 41.922-20.437 2.883-3.347 2.508-8.399-.836-11.281-3.358-2.886-8.396-2.519-11.287.837z"/></g></g></g></svg>