
        <svg xmlns="http://www.w3.org/2000/svg" xmlns:xlink="http://www.w3.org/1999/xlink" version="1.1" width="3179.0019915383086" 
        height="796.5588623454737" viewBox="0 0 3179.0019915383086 796.5588623454737">
			
			<g transform="scale(8.950099576915434) translate(10, 10)">
				<defs id="SvgjsDefs9077"></defs><g id="SvgjsG9078" featureKey="rootContainer" transform="matrix(1,0,0,1,0,0)" fill="#01ffc4"><rect y="0" height="1" width="1" opacity="0"></rect><rect y="64" width="335" height="5"></rect></g><g id="SvgjsG9079" featureKey="nameLeftFeature-0" transform="matrix(1.981343185142521,0,0,1.981343185142521,-1.4265676223783252,12.055970916961464)" fill="#ffffff"><path d="M0.74 6.720000000000001 c0 -2.18 1.64 -3.66 3.36 -3.7 c0.6 0 1.18 -0.02 1.78 -0.02 c1.76 0 3.28 1.54 3.28 3.74 l0 2.22 l-2.88 0 l0 -1.34 c0 -1.1 -0.16 -2.12 -1.28 -2.12 c-0.02 0 -0.18 0.02 -0.2 0.02 c-0.54 0.04 -1.04 0.5 -1.04 1.32 c0 4 5.88 4.26 5.88 9.66 c0 2.2 -1.64 3.72 -3.38 3.72 c-0.72 0 -1.44 0 -2.16 -0.02 c-1.74 -0.02 -3.38 -1.5 -3.38 -3.7 l0 -2.24 l3.02 0 l0 1.06 c-0.02 1.2 0.18 2.4 1.46 2.4 c0.86 0 1.42 -0.44 1.42 -1.48 c0 -3.9 -5.88 -4.1 -5.88 -9.52 z M16.86 16.52 l0 -13.3 l3.04 0 l0 13.3 c0 2.18 -1.66 3.68 -3.38 3.68 l-2.16 0 c-1.72 0 -3.36 -1.48 -3.36 -3.68 l0 -13.3 l3 0 l0 13.3 c0 1.08 0.62 1.24 1.36 1.24 c0.8 0 1.5 -0.04 1.5 -1.24 z M21.800000000000004 3.219999999999999 l3.06 0 l0 14.5 l3.56 0 l0 2.28 l-6.62 0 l0 -16.78 z M29.780000000000005 3.219999999999999 l3.06 0 l0 14.5 l3.56 0 l0 2.28 l-6.62 0 l0 -16.78 z M38.040000000000006 20 l0 -16.78 l3.06 0 l0 16.78 l-3.06 0 z M43.00000000000001 3.219999999999999 l3.06 0 l2.46 11.26 l2.44 -11.26 l3.04 0 l-4.04 16.78 l-2.94 0 z M60.18 3.219999999999999 l4.04 16.78 l-3.06 0 l-0.78 -3.58 l-3.3 0 l-0.8 3.58 l-3.04 0 l4.02 -16.78 l2.92 0 z M58.72 8.94 l-1.14 5.22 l2.3 0 z M72.25999999999999 3.219999999999999 l3.06 0 l0 16.78 l-3.14 0 l-3.7 -10.18 l0 10.18 l-3.06 0 l0 -16.78 l3.24 0 l3.6 9.72 l0 -9.72 z"></path></g><g id="SvgjsG9080" featureKey="nameRightFeature-0" transform="matrix(1.9767296972352508,0,0,1.9767296972352508,160.64656688359744,12.109345935824912)" fill="#ffffff"><path d="M9.36 13.52 l2.02 -10.28 l3.58 0 l-3.9 16.76 l-3.44 0 l-3.9 -16.76 l3.58 0 z M11.700000000000001 3.6400000000000006 l-2.34 11.96 l-2.38 -11.96 l-2.76 0 l3.72 15.96 l2.8 0 l3.72 -15.96 l-2.76 0 z M19.740000000000002 12.54 l0 4.82 l4.52 0 l0 2.64 l-8.08 0 l0 -16.76 l8.08 0 l0 2.64 l-4.52 -0.02 l0 4.08 l2.84 0 l0 2.6 l-2.84 0 z M22.18 12.14 l0 -1.8 l-2.84 0 l0 -4.88 l4.52 0.02 l0 -1.84 l-7.28 0 l0 15.96 l7.28 0 l0 -1.84 l-4.52 0 l0 -5.62 l2.84 0 z M35.800000000000004 3.2399999999999984 l0 16.76 l-3.7 0 l-2.92 -9.04 l0 9.04 l-3.58 0 l0 -16.76 l3.8 0 l2.8 8.46 l0 -8.46 l3.6 0 z M26.000000000000004 19.6 l2.78 0 l0 -11.18 l3.62 11.18 l3 0 l0 -15.96 l-2.8 0 l0 10.54 l-3.48 -10.54 l-3.12 0 l0 15.96 z M47.260000000000005 5.880000000000001 l-3.3 0 l0 14.12 l-3.56 0 l0 -14.12 l-3.3 0 l0 -2.64 l10.16 0 l0 2.64 z M43.56000000000001 19.6 l0 -14.12 l3.3 0 l0 -1.84 l-9.36 0 l0 1.84 l3.3 0 l0 14.12 l2.76 0 z M57.46000000000001 16.52 c0 1.94 -1.54 3.7 -3.52 3.7 l-2.12 0 c-2 0 -3.5 -1.76 -3.5 -3.7 l0 -13.3 l3.54 0 l0 13.3 c0 0.74 0.44 0.84 0.92 0.84 c0.66 0 1.1 0 1.1 -0.84 l0 -13.3 l3.58 0 l0 13.3 z M51.46000000000001 16.52 l0 -12.9 l-2.74 0 l0 12.9 c0 1.76 1.36 3.3 3.1 3.3 l2.12 0 c1.72 0 3.12 -1.56 3.12 -3.3 l0 -12.9 l-2.78 0 l0 12.9 c0 0.88 -0.46 1.24 -1.26 1.24 c-0.86 0 -1.56 -0.16 -1.56 -1.24 z M62.72000000000001 13.719999999999999 l0 6.28 l-3.56 0 l0 -16.76 l4.8 0 c0.28 0 0.56 -0.02 0.82 -0.02 c0.3 0 0.6 0.04 0.88 0.12 c1.4 0.4 2.68 1.78 2.64 3.52 l0 0.74 c0 0.86 -0.02 1.72 0 2.58 c0.04 1.32 -0.68 2.5 -1.56 3.14 l2.16 6.68 l-3.64 0 l-1.92 -6.26 c-0.22 -0.02 -0.42 -0.02 -0.62 -0.02 z M62.320000000000014 13.32 l1.3 0.02 l1.94 6.26 l2.78 0 l-2.06 -6.42 l0.22 -0.18 c0.86 -0.62 1.4 -1.68 1.4 -2.74 l0 -3.4 c0 -1.72 -1.38 -3.24 -3.12 -3.24 l-5.22 0.02 l0 15.96 l2.76 0 l0 -6.28 z M62.320000000000014 5.66 l1.68 0 c0.84 0 1.06 0.86 1.06 1.3 l0 3.3 c0 0.6 -0.26 1.28 -0.96 1.28 l-1.78 -0.02 l0 -5.86 z M62.72000000000001 6.0600000000000005 l0 5.06 c0.48 0 0.92 0.02 1.38 0.02 c0.44 0 0.56 -0.52 0.56 -0.88 l0 -3.3 c0.02 -0.48 -0.28 -0.92 -0.66 -0.9 l-1.28 0 z M73.46 12.54 l0 4.82 l4.52 0 l0 2.64 l-8.08 0 l0 -16.76 l8.08 0 l0 2.64 l-4.52 -0.02 l0 4.08 l2.84 0 l0 2.6 l-2.84 0 z M75.9 12.14 l0 -1.8 l-2.84 0 l0 -4.88 l4.52 0.02 l0 -1.84 l-7.28 0 l0 15.96 l7.28 0 l0 -1.84 l-4.52 0 l0 -5.62 l2.84 0 z M88.3 16.56 c0 2.12 -1.78 3.7 -3.48 3.68 l-2.2 0 c-2.06 0 -3.54 -1.68 -3.54 -3.7 l0 -2.36 l3.54 0 l0 0.94 c-0.02 0.96 -0.08 2.2 1.06 2.2 c0.62 -0.02 1.06 -0.34 1.06 -1.06 c0 -3.86 -5.74 -3.98 -5.74 -9.52 c0 -2.04 1.54 -3.76 3.62 -3.76 c0.22 0.02 0.44 0.02 0.64 0.02 c0.42 0 0.84 -0.02 1.26 -0.02 c1.64 0 3.24 1.64 3.24 3.68 l0 2.48 l-3.38 0 l0 -1.42 c0 -0.78 0 -1.8 -0.92 -1.82 c0.02 0 -0.12 0.02 -0.1 0.02 c-0.38 -0.02 -0.8 0.34 -0.8 0.94 c0 3.94 5.74 4.12 5.74 9.7 z M84.78 7.18 c0.06 0.54 0.02 1.12 0 1.56 l2.58 0 l0 -2.08 c0 -1.6 -1.24 -3.28 -2.84 -3.28 l-1.98 0 c-1.78 0 -3.14 1.58 -3.14 3.36 c0 2.58 1.32 3.9 2.72 5.08 c0.36 0.32 0.72 0.6 1.06 0.9 c1.1 0.96 1.96 1.98 1.96 3.54 c0 0.86 -0.56 1.46 -1.46 1.46 c-1.24 0 -1.46 -1.08 -1.46 -2.08 l0 -1.06 l-2.74 0 l0 1.96 c0 1.74 1.32 3.3 3.04 3.3 l2.3 0 c1.7 0 3.08 -1.56 3.08 -3.28 c0 -2.6 -1.32 -3.94 -2.74 -5.16 c-0.36 -0.3 -0.72 -0.6 -1.06 -0.9 c-1.1 -1 -1.94 -2.04 -1.94 -3.64 c0 -0.74 0.48 -1.36 1.3 -1.36 c0.94 0 1.24 0.9 1.32 1.68 z"></path></g>
			</g>
		</svg>
	